<svg xmlns="http://www.w3.org/2000/svg" width="800" height="600" viewBox="0 0 800 600">
  <rect width="800" height="600" fill="#0A0A0A"/>
  <rect x="40" y="40" width="180" height="520" rx="12" fill="#141414"/>
  <rect x="60" y="60" width="100" height="16" rx="4" fill="#F5F5F5"/>
  <rect x="60" y="100" width="140" height="8" rx="2" fill="#333"/>
  <rect x="60" y="120" width="120" height="8" rx="2" fill="#333"/>
  <rect x="60" y="140" width="130" height="8" rx="2" fill="#333"/>
  <rect x="240" y="40" width="520" height="120" rx="12" fill="#141414"/>
  <rect x="260" y="70" width="80" height="32" rx="6" fill="#1C1C1C"/>
  <rect x="360" y="70" width="80" height="32" rx="6" fill="#1C1C1C"/>
  <rect x="460" y="70" width="80" height="32" rx="6" fill="#25D366" opacity="0.3"/>
  <rect x="240" y="180" width="520" height="380" rx="12" fill="#141414"/>
  <rect x="260" y="200" width="480" height="24" rx="4" fill="#1C1C1C"/>
  <rect x="260" y="240" width="480" height="12" rx="2" fill="#333"/>
  <rect x="260" y="264" width="400" height="12" rx="2" fill="#333"/>
  <rect x="260" y="288" width="440" height="12" rx="2" fill="#333"/>
  <rect x="260" y="312" width="360" height="12" rx="2" fill="#333"/>
  <rect x="260" y="336" width="420" height="12" rx="2" fill="#333"/>
</svg>
